<?xml version="1.0" encoding="utf-8"?>
<!-- Generator: Adobe Illustrator 19.0.0, SVG Export Plug-In . SVG Version: 6.00 Build 0)  -->
<svg version="1.1" id="Layer_1" xmlns="http://www.w3.org/2000/svg" xmlns:xlink="http://www.w3.org/1999/xlink" x="0px" y="0px"
	 viewBox="-181 357.7 232.5 127.2" style="enable-background:new -181 357.7 232.5 127.2;" xml:space="preserve" width="50px" height="50px">
<style type="text/css">
	.st0{display:none;fill:#FFFFFF;stroke:#000000;stroke-miterlimit:10;}
	.st1{stroke:#FFFFFF;stroke-miterlimit:10;}
	.st2{display:none;fill:#FFFFFF;stroke:#FFFFFF;stroke-miterlimit:10;}
</style>
<rect id="XMLID_1_" x="-267.6" y="254.6" class="st0" width="595.3" height="841.9"/>
<rect id="XMLID_2_" x="-139.5" y="365.5" class="st1" width="8.4" height="119.4"/>
<rect id="XMLID_3_" x="-124.6" y="381.6" class="st1" width="5.4" height="80"/>
<rect id="XMLID_4_" x="-151.8" y="381.6" class="st1" width="5.7" height="80"/>
<rect id="XMLID_7_" x="-113" y="404.5" class="st1" width="5.7" height="41.5"/>
<rect id="XMLID_8_" x="-163.7" y="394.9" class="st1" width="5.7" height="41.5"/>
<rect id="XMLID_10_" x="-102.2" y="417.3" class="st2" width="4.8" height="8.7"/>
<rect id="XMLID_11_" x="-173.8" y="403.3" class="st1" width="4.8" height="8.7"/>
<g id="XMLID_13_">
	<path id="XMLID_14_" d="M-76.7,425.2l-16.2-22.8v22.9h-6.6v-36h9.8l15.8,22.7v-22.8h6.6v36H-76.7z"/>
	<path id="XMLID_16_" d="M-60.9,425.2v-36h26.7v5.1H-51v10.1h15v4.9h-15V420h16.7v5.2H-60.9z"/>
	<path id="XMLID_18_" d="M-28.9,425.2v-36h15.4c10.9,0,19.1,6.8,19.1,18.1c0,11.4-8.1,17.9-19.1,17.9H-28.9z M-15,420.4
		c5.7,0,9.5-4.8,9.6-13c0-8.3-3.9-13.2-9.6-13.2h-3.3v26.2H-15z"/>
	<path id="XMLID_21_" d="M29.8,425.2l-0.5-5c-1.6,3.8-4.3,6-8.5,6c-7.2,0-12.1-6-12.1-14.8c0-8.7,4.9-14.7,12.1-14.7
		c4.1,0,6.9,2.2,8.5,5.9l0.4-4.8h8.6v27.5h-8.5V425.2z M29.2,411.4c0-5.8-2.4-9.6-5.5-9.6c-3.2,0-5.7,4-5.7,9.6
		c0,5.8,2.4,9.7,5.7,9.7C26.8,421.1,29.2,417.3,29.2,411.4z"/>
</g>
</svg>
